<svg width="16" height="16" fill="none" xmlns="http://www.w3.org/2000/svg"><g filter="url('#filter0_d_6_21')"><rect x="1" y="3" width="14" height="10" rx="2" fill="url('#paint0_linear_6_21')"/></g><g filter="url('#filter1_d_6_21')"><rect x="4.464" y="1.876" width="10" height="10" rx="1" transform="rotate(15 4.464 1.876)" fill="#fff"/><path d="M9.034 4.136c-.57.751-.925 1.248-1.527 1.963.168.312.379.679.76 1.131-.449-.341-.736-.641-.935-.926-.764.891-1.922 2.142-4.231 4.524 1.414-.378 2.48-.56 3.41-.49a2.32 2.32 0 0 1 .083-.54l.011-.038c.23-.78.8-1.274 1.272-1.103.473.17.67.94.44 1.72-.04.141-.095.278-.162.408.829.406 1.652 1.092 2.674 2.114-.121-.503-.228-.955-.33-1.386-.254-.333-.5-.745-1.088-1.277.436.247.733.476.952.703-1.035-4.396-1.066-4.952-1.329-6.803Z" fill="#000"/></g><defs><filter id="filter0_d_6_21" x="0" y="2.2" width="16" height="12" filterUnits="userSpaceOnUse" color-interpolation-filters="sRGB"><feFlood flood-opacity="0" result="BackgroundImageFix"/><feColorMatrix in="SourceAlpha" values="0 0 0 0 0 0 0 0 0 0 0 0 0 0 0 0 0 0 127 0" result="hardAlpha"/><feOffset dy=".2"/><feGaussianBlur stdDeviation=".5"/><feColorMatrix values="0 0 0 0 0 0 0 0 0 0 0 0 0 0 0 0 0 0 0.25 0"/><feBlend in2="BackgroundImageFix" result="effect1_dropShadow_6_21"/><feBlend in="SourceGraphic" in2="effect1_dropShadow_6_21" result="shape"/></filter><filter id="filter1_d_6_21" x="1.101" y="1.301" width="13.799" height="13.799" filterUnits="userSpaceOnUse" color-interpolation-filters="sRGB"><feFlood flood-opacity="0" result="BackgroundImageFix"/><feColorMatrix in="SourceAlpha" values="0 0 0 0 0 0 0 0 0 0 0 0 0 0 0 0 0 0 127 0" result="hardAlpha"/><feOffset dy=".2"/><feGaussianBlur stdDeviation=".5"/><feColorMatrix values="0 0 0 0 0 0 0 0 0 0 0 0 0 0 0 0 0 0 0.25 0"/><feBlend in2="BackgroundImageFix" result="effect1_dropShadow_6_21"/><feBlend in="SourceGraphic" in2="effect1_dropShadow_6_21" result="shape"/></filter><linearGradient id="paint0_linear_6_21" x1="8" y1="3" x2="8" y2="13" gradientUnits="userSpaceOnUse"><stop stop-color="#5F8F99"/><stop offset="1" stop-color="#425770"/></linearGradient></defs></svg>